Coordinates
version=1
nRows=17
nColumns=63
inDegrees=yes

Units are S.I. units (second, meters, Newtons, ...)
If the header above contains a line with 'inDegrees', this indicates whether rotational values are in degrees (yes) or radians (no).

endheader
time	pelvis_tilt	pelvis_list	pelvis_rotation	pelvis_tx	pelvis_ty	pelvis_tz	hip_flexion_r	hip_adduction_r	hip_rotation_r	knee_angle_r	knee_angle_r_beta	ankle_angle_r	subtalar_angle_r	mtp_angle_r	hip_flexion_l	hip_adduction_l	hip_rotation_l	knee_angle_l	knee_angle_l_beta	ankle_angle_l	subtalar_angle_l	mtp_angle_l	L5_S1_Flex_Ext	L5_S1_Lat_Bending	L5_S1_axial_rotation	L4_L5_Flex_Ext	L4_L5_Lat_Bending	L4_L5_axial_rotation	L3_L4_Flex_Ext	L3_L4_Lat_Bending	L3_L4_axial_rotation	L2_L3_Flex_Ext	L2_L3_Lat_Bending	L2_L3_axial_rotation	L1_L2_Flex_Ext	L1_L2_Lat_Bending	L1_L2_axial_rotation	L1_T12_Flex_Ext	L1_T12_Lat_Bending	L1_T12_axial_rotation	Abs_r3	Abs_r2	Abs_r1	Abs_t1	Abs_t2	neck_flexion	neck_bending	neck_rotation	arm_flex_r	arm_add_r	arm_rot_r	elbow_flex_r	pro_sup_r	wrist_flex_r	wrist_dev_r	arm_flex_l	arm_add_l	arm_rot_l	elbow_flex_l	pro_sup_l	wrist_flex_l	wrist_dev_l
4.322034	-2.356134	13.623559	91.179389	0.244896	0.819961	0.619114	-20.850791	-1.111587	-6.102973	5.962220	0.104060	20.974540	9.290821	0.000000	-18.654119	-1.355140	0.300099	5.785145	0.100970	21.814632	-0.541829	0.000000	-0.000434	-0.561516	1.110298	-0.000806	-0.746816	1.179692	-0.000713	-1.365270	1.179692	-0.000496	-1.365270	0.971511	-0.000403	-1.145043	0.902117	-0.000248	-0.869788	0.832724	-0.003099	-6.351979	6.175145	0.000000	0.000000	-0.130699	3.534260	-12.801676	717.981473	-115.261988	223.818482	119.732463	69.458820	28.608141	8.587704	544.951619	-59.589607	419.901363	125.764144	78.601625	-10.934360	-0.689927
4.338983	-2.048791	13.834468	91.315275	0.243365	0.820740	0.618867	-20.995564	-0.841620	-5.950425	6.062345	0.105808	20.977484	9.129397	0.000000	-18.873682	-1.675449	0.362481	5.852621	0.102148	21.784458	-0.469013	0.000000	-0.005789	-0.515657	1.189062	-0.010751	-0.685823	1.263379	-0.009511	-1.253768	1.263379	-0.006617	-1.253768	1.040429	-0.005376	-1.051527	0.966113	-0.003308	-0.798752	0.891797	-0.041353	-5.833211	6.613207	0.000000	0.000000	0.421749	2.167435	-13.378467	719.229571	-113.304077	228.640898	113.690586	69.126322	17.539437	5.185053	545.863068	-62.195546	426.411895	120.142874	75.801662	-8.108919	0.985749
4.355932	-1.827027	13.990158	91.433589	0.242032	0.821597	0.618684	-21.099622	-0.651922	-5.835462	6.108914	0.106621	21.038899	9.031539	0.000000	-19.045624	-1.912004	0.375200	5.895820	0.102901	21.645005	-0.360360	0.000000	-0.010114	-0.477820	1.247740	-0.018783	-0.635500	1.325724	-0.016616	-1.161771	1.325724	-0.011559	-1.161771	1.091772	-0.009392	-0.974370	1.013789	-0.005779	-0.740143	0.935805	-0.072243	-5.405194	6.939555	0.000000	0.000000	1.095206	0.844082	-13.668129	722.462143	-111.373371	236.387101	107.494028	69.461997	6.779512	2.651071	547.961168	-64.744281	433.967150	114.133231	72.962035	-5.400722	2.626299
4.372881	-1.717234	14.088401	91.541429	0.240959	0.822533	0.618625	-21.165115	-0.563334	-5.781415	6.092504	0.106334	21.143523	8.996289	0.000000	-19.163187	-2.040794	0.374705	5.915037	0.103237	21.367851	-0.253205	0.000000	-0.014140	-0.453618	1.295034	-0.026260	-0.603311	1.375974	-0.023231	-1.102926	1.375974	-0.016161	-1.102926	1.133155	-0.013131	-0.925017	1.052215	-0.008080	-0.702654	0.971276	-0.101002	-5.131413	7.202592	0.000000	0.000000	1.840541	-0.279765	-13.761380	726.810655	-109.448436	245.735796	101.203328	70.751314	-3.079398	1.254619	551.637301	-67.109803	442.807117	108.069013	70.128388	-3.129785	4.599512
4.389831	-1.717055	14.140518	91.607480	0.240167	0.823541	0.618800	-21.188455	-0.583813	-5.739127	6.024034	0.105139	21.282745	8.972694	0.000000	-19.223334	-2.060258	0.199928	5.933276	0.103555	20.991972	0.030170	0.000000	-0.019878	-0.442846	1.321031	-0.036916	-0.588985	1.403596	-0.032658	-1.076735	1.403596	-0.022719	-1.076735	1.155902	-0.018459	-0.903051	1.073338	-0.011359	-0.685968	0.990773	-0.141990	-5.009560	7.347180	0.000000	0.000000	2.606591	-1.124763	-13.589270	732.063972	-107.418398	254.727388	94.743197	75.017550	-11.634337	1.194008	557.155766	-69.103241	452.965017	102.104382	67.722110	-1.396462	6.921400
4.406780	-1.820639	14.151403	91.608803	0.239679	0.824615	0.619275	-21.166786	-0.712751	-5.646897	5.901996	0.103009	21.433537	8.900198	0.000000	-19.236849	-1.961483	-0.031636	5.927148	0.103448	20.483008	0.303331	0.000000	-0.026940	-0.444723	1.329748	-0.050030	-0.591482	1.412857	-0.044260	-1.081300	1.412857	-0.030790	-1.081300	1.163529	-0.025016	-0.906879	1.080420	-0.015393	-0.688876	0.997311	-0.192429	-5.030797	7.395657	0.000000	0.000000	3.313879	-1.679168	-13.163324	739.453910	-105.172270	267.424016	87.607670	79.308621	-18.453572	1.888262	564.144465	-70.670489	463.810195	96.237425	66.160966	-0.236203	9.164061
4.423729	-2.015805	14.113689	91.528789	0.239465	0.825716	0.620056	-21.080941	-0.949038	-5.541137	5.742945	0.100233	21.604216	8.857499	0.000000	-19.188719	-1.753872	-0.405792	5.913095	0.103203	19.884542	0.674317	0.000000	-0.034823	-0.458802	1.324542	-0.064670	-0.610207	1.407326	-0.057210	-1.115532	1.407326	-0.039799	-1.115532	1.158975	-0.032336	-0.935590	1.076191	-0.019898	-0.710685	0.993407	-0.248736	-5.190063	7.366707	0.000000	0.000000	3.922057	-1.924902	-12.539943	747.562928	-102.837321	283.099160	80.105659	82.692971	-23.223689	3.381609	571.349735	-71.703815	469.659230	90.984985	68.487793	-0.354430	10.989998
4.440678	-2.262176	14.028158	91.317412	0.239474	0.826828	0.621190	-20.912219	-1.273350	-5.371113	5.566575	0.097155	21.776162	8.854686	0.000000	-19.074598	-1.461641	-1.022373	5.903767	0.103040	19.228022	1.214848	0.000000	-0.042651	-0.477256	1.335706	-0.079208	-0.634750	1.419188	-0.070072	-1.160399	1.419188	-0.048746	-1.160399	1.168743	-0.039606	-0.973219	1.085261	-0.024371	-0.739269	1.001779	-0.304653	-5.398810	7.428796	0.000000	0.000000	4.355141	-2.027347	-11.807299	755.514068	-100.550717	301.127619	72.588370	84.713914	-25.731313	5.663169	580.640947	-72.985038	479.868316	84.862801	68.738014	-1.284385	10.779705
4.457627	-2.500454	13.886811	90.975611	0.239534	0.827891	0.622614	-20.652057	-1.632114	-5.127263	5.384896	0.093984	21.929314	8.903399	0.000000	-18.892785	-1.132471	-1.797254	5.893361	0.102859	18.530461	1.813254	0.000000	-0.048529	-0.493784	1.344558	-0.090124	-0.656732	1.428593	-0.079729	-1.200586	1.428593	-0.055464	-1.200586	1.176488	-0.045064	-1.006924	1.092453	-0.027730	-0.764871	1.008418	-0.346639	-5.585780	7.478028	0.000000	0.000000	4.632238	-1.966700	-10.943155	762.419247	-98.289533	320.350503	65.314667	85.429393	-25.831266	8.543169	592.066188	-74.479709	495.367642	78.017964	66.699093	-3.503042	8.798574
4.474576	-2.742568	13.679545	90.525271	0.239616	0.828800	0.624218	-20.297819	-2.032140	-4.857501	5.205194	0.090848	22.067280	9.051002	0.000000	-18.649888	-0.748532	-2.510486	5.850246	0.102106	17.766696	2.194216	0.000000	-0.051037	-0.511722	1.358363	-0.094781	-0.680590	1.443261	-0.083849	-1.244201	1.443261	-0.058330	-1.244201	1.188568	-0.047393	-1.043504	1.103670	-0.029163	-0.792658	1.018773	-0.364554	-5.788703	7.554810	0.000000	0.000000	4.830318	-1.794731	-10.106365	767.599822	-95.828158	339.815218	57.714189	85.161118	-24.622406	8.146186	605.417417	-76.104810	516.556496	70.593931	62.928364	-6.545790	5.415946
4.491525	-2.969783	13.443148	89.979464	0.239662	0.829443	0.625929	-19.893015	-2.452174	-4.549655	5.038829	0.087944	22.198783	9.275669	0.000000	-18.387189	-0.330200	-3.158562	5.776196	0.100814	16.994488	2.356719	0.000000	-0.054066	-0.529342	1.372640	-0.100406	-0.704025	1.458430	-0.088825	-1.287043	1.458430	-0.061792	-1.287043	1.201060	-0.050206	-1.079435	1.115270	-0.030893	-0.819951	1.029480	-0.386188	-5.988027	7.634210	0.000000	0.000000	5.014476	-1.538267	-9.331575	770.981436	-93.151929	358.896459	50.239964	83.520432	-21.657675	6.607538	620.274236	-77.595327	542.551037	62.716889	59.674585	-8.483664	1.366128
4.508475	-3.205370	13.188781	89.371921	0.239730	0.829715	0.627610	-19.465276	-2.901178	-4.228558	4.886093	0.085278	22.334039	9.578936	0.000000	-18.127293	0.134723	-3.648361	5.653878	0.098679	16.237887	2.207826	0.000000	-0.058482	-0.551205	1.407540	-0.108607	-0.733102	1.495511	-0.096080	-1.340199	1.495511	-0.066839	-1.340199	1.231598	-0.054306	-1.124017	1.143626	-0.033417	-0.853816	1.055655	-0.417730	-6.235339	7.828316	0.000000	0.000000	5.266146	-1.212910	-8.782429	773.028909	-90.082647	377.597354	43.108168	75.338301	-17.106650	7.702820	635.545344	-78.628277	571.944613	54.845173	57.849593	-8.566124	-1.133452
4.525424	-3.493347	12.930681	88.755059	0.239885	0.829556	0.629147	-19.045987	-3.402729	-3.931394	4.746709	0.082846	22.474684	9.937318	0.000000	-17.890371	0.671074	-3.876587	5.472811	0.095519	15.506277	1.665946	0.000000	-0.065426	-0.583307	1.456738	-0.121503	-0.775798	1.547784	-0.107489	-1.418252	1.547784	-0.074776	-1.418252	1.274646	-0.060755	-1.189479	1.183600	-0.037385	-0.903542	1.092554	-0.467333	-6.598483	8.101940	0.000000	0.000000	5.642530	-0.843213	-8.466587	773.370422	-86.559186	394.001033	36.647570	65.157881	-12.241438	9.107579	650.698668	-79.041445	605.229066	47.085172	57.359343	-8.361741	-2.551499
4.542373	-3.883295	12.667071	88.181246	0.240201	0.828924	0.630415	-18.654673	-3.984380	-3.647960	4.608335	0.080431	22.614883	10.264121	0.000000	-17.674366	1.306410	-3.805931	5.236910	0.091401	14.834486	0.743787	0.000000	-0.074115	-0.632325	1.512689	-0.137640	-0.840992	1.607232	-0.121764	-1.537434	1.607232	-0.084706	-1.537434	1.323602	-0.068824	-1.289437	1.229059	-0.042350	-0.979471	1.134516	-0.529399	-7.152984	8.413120	0.000000	0.000000	6.212681	-0.444253	-8.387350	772.009259	-82.495090	407.770198	31.076297	55.165083	-8.231386	10.052307	665.385701	-78.587806	644.931070	39.170131	61.659353	-8.313960	-2.377919
4.559322	-4.309716	12.412097	87.628994	0.240552	0.827841	0.631353	-18.303551	-4.593504	-3.340634	4.478313	0.078161	22.737612	10.543099	0.000000	-17.502878	1.986570	-3.473497	4.939708	0.086214	14.272710	-0.544016	0.000000	-0.085501	-0.688603	1.577392	-0.158784	-0.915842	1.675979	-0.140470	-1.674270	1.675979	-0.097719	-1.674270	1.380218	-0.079396	-1.404200	1.281631	-0.048855	-1.066646	1.183044	-0.610726	-7.789618	8.772983	0.000000	0.000000	7.013423	-0.067355	-8.517114	769.010237	-77.960011	419.632298	26.247558	45.806623	-5.132242	10.795397	678.689658	-77.426737	682.155321	31.821507	63.730702	-8.209968	-1.877412
4.576271	-4.761174	12.169514	87.111293	0.240922	0.826319	0.631922	-17.998044	-5.212835	-2.973669	4.356469	0.076035	22.850293	10.709933	0.000000	-17.371321	2.691289	-2.966175	4.599930	0.080284	13.876366	-2.056191	0.000000	-0.099492	-0.750589	1.653713	-0.184766	-0.998284	1.757070	-0.163455	-1.824983	1.757070	-0.113709	-1.824983	1.446999	-0.092388	-1.530602	1.343642	-0.056849	-1.162663	1.240285	-0.710658	-8.490815	9.197457	0.000000	0.000000	8.051017	0.242789	-8.876583	764.454974	-72.881423	429.695012	22.048476	36.918182	-2.668344	11.114393	690.282897	-75.463559	717.069369	25.020938	63.899340	-8.095125	-1.274491
4.593220	-5.216887	11.958320	86.659252	0.241203	0.824404	0.632160	-17.751951	-5.817141	-2.542435	4.257633	0.074310	22.972823	10.713717	0.000000	-17.283127	3.390218	-2.371142	4.246953	0.074123	13.683351	-3.640844	0.000000	-0.118888	-0.813577	1.735103	-0.220787	-1.082057	1.843547	-0.195321	-1.978131	1.843547	-0.135877	-1.978131	1.518215	-0.110400	-1.659046	1.409771	-0.067933	-1.260230	1.301327	-0.849207	-9.203343	9.650120	0.000000	0.000000	9.309361	0.409796	-9.380921	758.546709	-67.229281	437.828556	18.479711	28.512447	-0.941737	10.765243	700.014157	-72.649975	749.074619	18.881194	62.472747	-8.009817	-0.783569
